<svg width="200" height="200" viewBox="0 0 200 200" fill="none" xmlns="http://www.w3.org/2000/svg">
  <defs><linearGradient id="g-center" x1="0%" y1="0%" x2="100%" y2="100%"><stop stop-color="#ddd6fe"/><stop offset="1" stop-color="#8b5cf6"/></linearGradient><linearGradient id="g-innerLeft" x1="0%" y1="0%" x2="100%" y2="100%"><stop stop-color="#a78bfa"/><stop offset="1" stop-color="#5b21b6"/></linearGradient><linearGradient id="g-innerRight" x1="0%" y1="0%" x2="100%" y2="100%"><stop stop-color="#c4b5fd"/><stop offset="1" stop-color="#6d28d9"/></linearGradient><linearGradient id="g-innerBottom" x1="0%" y1="0%" x2="100%" y2="100%"><stop stop-color="#9333ea"/><stop offset="1" stop-color="#4c1d95"/></linearGradient><linearGradient id="g-outerTopLeft" x1="0%" y1="0%" x2="100%" y2="100%"><stop stop-color="#b794f6"/><stop offset="1" stop-color="#6d28d9"/></linearGradient><linearGradient id="g-outerTopRight" x1="0%" y1="0%" x2="100%" y2="100%"><stop stop-color="#c4b5fd"/><stop offset="1" stop-color="#7c3aed"/></linearGradient><linearGradient id="g-outerRightUpper" x1="0%" y1="0%" x2="100%" y2="100%"><stop stop-color="#a855f7"/><stop offset="1" stop-color="#581c87"/></linearGradient><linearGradient id="g-outerRightLower" x1="0%" y1="0%" x2="100%" y2="100%"><stop stop-color="#7c3aed"/><stop offset="1" stop-color="#312e81"/></linearGradient><linearGradient id="g-outerLeftLower" x1="0%" y1="0%" x2="100%" y2="100%"><stop stop-color="#7c3aed"/><stop offset="1" stop-color="#312e81"/></linearGradient><linearGradient id="g-outerLeftUpper" x1="0%" y1="0%" x2="100%" y2="100%"><stop stop-color="#a78bfa"/><stop offset="1" stop-color="#5b21b6"/></linearGradient></defs>
  <g><path d="M 100 65 L 58 118 L 142 118 Z" fill="url(#g-center)" stroke="#5b21b6" stroke-width="1.2" stroke-linejoin="round"/><path d="M 100 65 L 58 118 L 23.64101615137781 56 Z" fill="url(#g-innerLeft)" stroke="#5b21b6" stroke-width="1.2" stroke-linejoin="round"/><path d="M 100 65 L 142 118 L 176.3589838486222 56 Z" fill="url(#g-innerRight)" stroke="#5b21b6" stroke-width="1.2" stroke-linejoin="round"/><path d="M 58 118 L 142 118 L 100 188 Z" fill="url(#g-innerBottom)" stroke="#5b21b6" stroke-width="1.2" stroke-linejoin="round"/><path d="M 100 65 L 23.64101615137781 56 L 100 12 Z" fill="url(#g-outerTopLeft)" stroke="#5b21b6" stroke-width="1.2" stroke-linejoin="round"/><path d="M 100 65 L 100 12 L 176.3589838486222 56 Z" fill="url(#g-outerTopRight)" stroke="#5b21b6" stroke-width="1.2" stroke-linejoin="round"/><path d="M 142 118 L 176.3589838486222 56 L 176.3589838486222 144 Z" fill="url(#g-outerRightUpper)" stroke="#5b21b6" stroke-width="1.2" stroke-linejoin="round"/><path d="M 142 118 L 176.3589838486222 144 L 100 188 Z" fill="url(#g-outerRightLower)" stroke="#5b21b6" stroke-width="1.2" stroke-linejoin="round"/><path d="M 58 118 L 100 188 L 23.64101615137781 144 Z" fill="url(#g-outerLeftLower)" stroke="#5b21b6" stroke-width="1.2" stroke-linejoin="round"/><path d="M 58 118 L 23.64101615137781 144 L 23.64101615137781 56 Z" fill="url(#g-outerLeftUpper)" stroke="#5b21b6" stroke-width="1.2" stroke-linejoin="round"/></g>
  <path d="M 100 12 L 176.3589838486222 56 L 176.3589838486222 144 L 100 188 L 23.64101615137781 144 L 23.64101615137781 56 Z" fill="none" stroke="#c4b5fd" stroke-width="1.5" stroke-linejoin="round" opacity="0.35"/>
</svg>
